<svg width="371" height="272" viewBox="0 0 371 272" fill="none" xmlns="http://www.w3.org/2000/svg">
<g filter="url(#filter0_d)">
<path d="M160.496 190.032V258H139.28V224.112L128.816 258H110.576L100.112 224.112V258H78.7999V190.032H104.912L119.888 230.832L134.48 190.032H160.496Z" fill="#813F38"/>
<path d="M167.04 237.768C167.04 233.592 167.784 229.944 169.272 226.824C170.808 223.704 172.872 221.304 175.464 219.624C178.104 217.944 181.032 217.104 184.248 217.104C187.032 217.104 189.432 217.656 191.448 218.76C193.464 219.864 195.024 221.352 196.128 223.224V217.608H210.24V258H196.128V252.384C195.024 254.256 193.44 255.744 191.376 256.848C189.36 257.952 186.984 258.504 184.248 258.504C181.032 258.504 178.104 257.664 175.464 255.984C172.872 254.304 170.808 251.904 169.272 248.784C167.784 245.616 167.04 241.944 167.04 237.768ZM196.128 237.768C196.128 235.176 195.408 233.136 193.968 231.648C192.576 230.16 190.848 229.416 188.784 229.416C186.672 229.416 184.92 230.16 183.528 231.648C182.136 233.088 181.44 235.128 181.44 237.768C181.44 240.36 182.136 242.424 183.528 243.96C184.92 245.448 186.672 246.192 188.784 246.192C190.848 246.192 192.576 245.448 193.968 243.96C195.408 242.472 196.128 240.408 196.128 237.768Z" fill="#813F38"/>
<path d="M235.49 258.504C231.842 258.504 228.578 257.904 225.698 256.704C222.866 255.456 220.61 253.776 218.93 251.664C217.298 249.504 216.386 247.08 216.194 244.392H229.874C230.066 245.688 230.666 246.696 231.674 247.416C232.682 248.136 233.93 248.496 235.418 248.496C236.57 248.496 237.482 248.256 238.154 247.776C238.826 247.296 239.162 246.672 239.162 245.904C239.162 244.896 238.61 244.152 237.506 243.672C236.402 243.192 234.578 242.664 232.034 242.088C229.154 241.512 226.754 240.864 224.834 240.144C222.914 239.424 221.234 238.248 219.794 236.616C218.402 234.984 217.706 232.776 217.706 229.992C217.706 227.592 218.354 225.432 219.65 223.512C220.946 221.544 222.842 219.984 225.338 218.832C227.882 217.68 230.93 217.104 234.482 217.104C239.762 217.104 243.914 218.4 246.938 220.992C249.962 223.584 251.714 226.992 252.194 231.216H239.45C239.21 229.92 238.634 228.936 237.722 228.264C236.858 227.544 235.682 227.184 234.194 227.184C233.042 227.184 232.154 227.4 231.53 227.832C230.954 228.264 230.666 228.864 230.666 229.632C230.666 230.592 231.218 231.336 232.322 231.864C233.426 232.344 235.202 232.848 237.65 233.376C240.578 234 243.002 234.696 244.922 235.464C246.89 236.232 248.594 237.48 250.034 239.208C251.522 240.888 252.266 243.192 252.266 246.12C252.266 248.472 251.57 250.584 250.178 252.456C248.834 254.328 246.89 255.816 244.346 256.92C241.85 257.976 238.898 258.504 235.49 258.504Z" fill="#813F38"/>
<path d="M283.036 245.976V258H276.916C266.596 258 261.436 252.888 261.436 242.664V229.344H256.468V217.608H261.436V207.816H275.62V217.608H282.964V229.344H275.62V242.88C275.62 243.984 275.86 244.776 276.34 245.256C276.868 245.736 277.732 245.976 278.932 245.976H283.036Z" fill="#813F38"/>
<path d="M328.1 237.336C328.1 238.44 328.028 239.544 327.884 240.648H301.172C301.316 242.856 301.916 244.512 302.972 245.616C304.076 246.672 305.468 247.2 307.148 247.2C309.5 247.2 311.18 246.144 312.188 244.032H327.236C326.612 246.816 325.388 249.312 323.564 251.52C321.788 253.68 319.532 255.384 316.796 256.632C314.06 257.88 311.036 258.504 307.724 258.504C303.74 258.504 300.188 257.664 297.068 255.984C293.996 254.304 291.572 251.904 289.796 248.784C288.068 245.664 287.204 241.992 287.204 237.768C287.204 233.544 288.068 229.896 289.796 226.824C291.524 223.704 293.924 221.304 296.996 219.624C300.116 217.944 303.692 217.104 307.724 217.104C311.708 217.104 315.236 217.92 318.308 219.552C321.38 221.184 323.78 223.536 325.508 226.608C327.236 229.632 328.1 233.208 328.1 237.336ZM313.7 233.808C313.7 232.08 313.124 230.736 311.972 229.776C310.82 228.768 309.38 228.264 307.652 228.264C305.924 228.264 304.508 228.744 303.404 229.704C302.3 230.616 301.58 231.984 301.244 233.808H313.7Z" fill="#813F38"/>
<path d="M347.988 224.736C349.572 222.432 351.492 220.608 353.748 219.264C356.004 217.92 358.428 217.248 361.02 217.248V232.296H357.06C353.988 232.296 351.708 232.896 350.22 234.096C348.732 235.296 347.988 237.384 347.988 240.36V258H333.876V217.608H347.988V224.736Z" fill="#813F38"/>
</g>
<g filter="url(#filter1_d)">
<path fill-rule="evenodd" clip-rule="evenodd" d="M160.496 185.032C163.257 185.032 165.496 187.271 165.496 190.032V223.271C167.313 220.053 169.716 217.391 172.745 215.428L172.78 215.406C176.245 213.2 180.109 212.104 184.248 212.104C187.294 212.104 190.194 212.64 192.823 213.856C193.704 213.079 194.861 212.608 196.128 212.608H210.24C213.002 212.608 215.24 214.847 215.24 217.608V221.12C215.322 220.992 215.405 220.864 215.49 220.737C217.379 217.881 220.052 215.765 223.243 214.292L223.275 214.277C226.618 212.763 230.405 212.104 234.482 212.104C240.562 212.104 246.002 213.604 250.192 217.196C250.638 217.578 251.064 217.975 251.468 218.384V217.608C251.468 214.857 253.689 212.625 256.436 212.608V207.816C256.436 205.055 258.674 202.816 261.436 202.816H275.62C278.381 202.816 280.62 205.055 280.62 207.816V212.608H282.964C285.725 212.608 287.964 214.847 287.964 217.608V220.675C289.799 218.472 292.015 216.649 294.597 215.237L294.626 215.222C298.57 213.098 302.98 212.104 307.724 212.104C312.407 212.104 316.761 213.068 320.654 215.136C324.023 216.926 326.778 219.416 328.876 222.545V217.608C328.876 214.847 331.114 212.608 333.876 212.608H347.988C349.594 212.608 351.024 213.366 351.938 214.543C354.753 213.025 357.802 212.248 361.02 212.248C363.781 212.248 366.02 214.487 366.02 217.248V232.296C366.02 235.057 363.781 237.296 361.02 237.296H357.06C354.596 237.296 353.643 237.781 353.389 237.965C353.307 238.081 352.988 238.659 352.988 240.36V258C352.988 260.761 350.749 263 347.988 263H333.876C331.114 263 328.876 260.761 328.876 258V252.743C328.43 253.414 327.946 254.066 327.424 254.698C325.129 257.488 322.246 259.642 318.872 261.181C315.421 262.755 311.679 263.504 307.724 263.504C303.017 263.504 298.633 262.505 294.698 260.386L294.669 260.371C292.1 258.966 289.884 257.155 288.036 254.97V258C288.036 260.761 285.797 263 283.036 263H276.916C270.997 263 265.637 261.532 261.787 257.718C259.313 255.267 257.812 252.194 257.053 248.751C256.656 251.152 255.706 253.391 254.215 255.406C252.248 258.131 249.527 260.122 246.336 261.507L246.294 261.525C243.045 262.899 239.401 263.504 235.49 263.504C231.292 263.504 227.358 262.812 223.775 261.319C223.744 261.306 223.713 261.293 223.682 261.279C220.331 259.803 217.464 257.75 215.24 255.053V258C215.24 260.761 213.002 263 210.24 263H196.128C194.849 263 193.683 262.52 192.798 261.73C190.172 262.957 187.282 263.504 184.248 263.504C180.109 263.504 176.245 262.408 172.78 260.202L172.745 260.18C169.716 258.217 167.313 255.555 165.496 252.337V258C165.496 260.761 163.257 263 160.496 263H139.28C136.519 263 134.28 260.761 134.28 258V257.252L133.593 259.475C132.946 261.571 131.009 263 128.816 263H110.576C108.383 263 106.446 261.571 105.798 259.475L105.112 257.252V258C105.112 260.761 102.873 263 100.112 263H78.7999C76.0385 263 73.7999 260.761 73.7999 258V190.032C73.7999 187.271 76.0385 185.032 78.7999 185.032H104.912C107.009 185.032 108.883 186.341 109.606 188.309L119.827 216.155L129.772 188.348C130.483 186.359 132.368 185.032 134.48 185.032H160.496ZM119.888 230.832L104.912 190.032H78.7999V258H100.112V224.112L110.576 258H128.816L139.28 224.112V258H160.496V190.032H134.48L119.888 230.832ZM191.128 256.98C191.212 256.937 191.294 256.893 191.376 256.848C193.44 255.744 195.024 254.256 196.128 252.384V258H210.24V217.608H196.128V223.224C195.024 221.352 193.464 219.864 191.448 218.76C191.343 218.702 191.236 218.646 191.128 218.591C189.18 217.6 186.887 217.104 184.248 217.104C181.032 217.104 178.104 217.944 175.464 219.624C172.872 221.304 170.808 223.704 169.272 226.824C167.784 229.944 167.04 233.592 167.04 237.768C167.04 241.944 167.784 245.616 169.272 248.784C170.808 251.904 172.872 254.304 175.464 255.984C178.104 257.664 181.032 258.504 184.248 258.504C186.873 258.504 189.166 257.996 191.128 256.98ZM193.968 243.96C192.576 245.448 190.848 246.192 188.784 246.192C186.672 246.192 184.92 245.448 183.528 243.96C182.136 242.424 181.44 240.36 181.44 237.768C181.44 235.128 182.136 233.088 183.528 231.648C184.92 230.16 186.672 229.416 188.784 229.416C190.848 229.416 192.576 230.16 193.968 231.648C195.408 233.136 196.128 235.176 196.128 237.768C196.128 240.408 195.408 242.472 193.968 243.96ZM187.209 240.575C187.608 240.99 188.018 241.192 188.784 241.192C189.485 241.192 189.884 241.007 190.317 240.544C190.336 240.524 190.356 240.503 190.375 240.483C190.683 240.165 191.128 239.483 191.128 237.768C191.128 236.131 190.7 235.46 190.375 235.125C190.356 235.105 190.336 235.084 190.317 235.064C189.884 234.601 189.485 234.416 188.784 234.416C187.999 234.416 187.588 234.627 187.18 235.064C187.161 235.084 187.142 235.103 187.123 235.123C186.891 235.364 186.44 235.999 186.44 237.768C186.44 239.404 186.85 240.166 187.209 240.575ZM215.24 239.484C215.37 239.459 215.501 239.438 215.633 239.424C215.497 239.249 215.366 239.071 215.24 238.891V239.484ZM223.205 239.392C223.727 239.682 224.27 239.933 224.834 240.144C226.252 240.676 227.932 241.168 229.874 241.622C230.561 241.782 231.281 241.937 232.034 242.088C232.985 242.303 233.835 242.512 234.584 242.714C235.841 243.052 236.815 243.371 237.506 243.672C238.61 244.152 239.162 244.896 239.162 245.904C239.162 246.672 238.826 247.296 238.154 247.776C237.482 248.256 236.57 248.496 235.418 248.496C233.93 248.496 232.682 248.136 231.674 247.416C231.503 247.294 231.344 247.164 231.197 247.026C231.154 246.985 231.112 246.944 231.071 246.902C231.036 246.867 231.002 246.83 230.968 246.794C230.381 246.151 230.016 245.35 229.874 244.392H216.194C216.321 246.175 216.765 247.841 217.526 249.392C217.912 250.179 218.38 250.937 218.93 251.664C220.61 253.776 222.866 255.456 225.698 256.704C228.578 257.904 231.842 258.504 235.49 258.504C238.898 258.504 241.85 257.976 244.346 256.92C246.89 255.816 248.834 254.328 250.178 252.456C251.57 250.584 252.266 248.472 252.266 246.12C252.266 243.192 251.522 240.888 250.034 239.208C248.994 237.96 247.817 236.963 246.502 236.216C245.996 235.928 245.469 235.678 244.922 235.464C243.41 234.859 241.586 234.299 239.45 233.784C238.873 233.645 238.273 233.509 237.65 233.376C236.507 233.129 235.51 232.888 234.66 232.652C233.69 232.383 232.91 232.12 232.322 231.864C231.218 231.336 230.666 230.592 230.666 229.632C230.666 228.864 230.954 228.264 231.53 227.832C232.154 227.4 233.042 227.184 234.194 227.184C235.682 227.184 236.858 227.544 237.722 228.264C237.725 228.266 237.728 228.269 237.732 228.271C238.05 228.507 238.327 228.781 238.563 229.093C238.566 229.097 238.568 229.101 238.571 229.104C239.003 229.679 239.296 230.383 239.45 231.216H252.194C252.121 230.573 252.018 229.949 251.886 229.344C251.77 228.81 251.63 228.29 251.468 227.785C251.294 227.245 251.094 226.722 250.868 226.216C249.97 224.21 248.661 222.469 246.938 220.992C243.914 218.4 239.762 217.104 234.482 217.104C230.93 217.104 227.882 217.68 225.338 218.832C222.842 219.984 220.946 221.544 219.65 223.512C218.354 225.432 217.706 227.592 217.706 229.992C217.706 232.776 218.402 234.984 219.794 236.616C220.811 237.769 221.948 238.694 223.205 239.392ZM256.105 234.331C256.047 234.404 255.986 234.476 255.924 234.546C255.348 235.191 254.622 235.668 253.822 235.944C253.824 235.946 253.827 235.949 253.829 235.952C255.038 237.334 255.885 238.896 256.436 240.567V234.344C256.325 234.343 256.214 234.339 256.105 234.331ZM261.436 229.344V242.664C261.436 252.888 266.596 258 276.916 258H283.036V245.976H278.932C277.732 245.976 276.868 245.736 276.34 245.256C275.86 244.776 275.62 243.984 275.62 242.88V229.344H282.964V217.608H275.62V207.816H261.436V217.608H256.468V229.344H261.436ZM280.62 234.344V240.976H282.355C282.254 239.926 282.204 238.857 282.204 237.768C282.204 236.604 282.261 235.462 282.377 234.344H280.62ZM289.796 226.824C288.068 229.896 287.204 233.544 287.204 237.768C287.204 241.992 288.068 245.664 289.796 248.784C291.572 251.904 293.996 254.304 297.068 255.984C300.188 257.664 303.74 258.504 307.724 258.504C311.036 258.504 314.06 257.88 316.796 256.632C319.532 255.384 321.788 253.68 323.564 251.52C324.219 250.728 324.796 249.898 325.296 249.032C325.914 247.961 326.415 246.833 326.797 245.648C326.967 245.121 327.113 244.582 327.236 244.032H312.188C311.886 244.666 311.523 245.204 311.1 245.648C310.112 246.683 308.795 247.2 307.148 247.2C305.486 247.2 304.105 246.683 303.006 245.648C302.995 245.637 302.984 245.627 302.972 245.616C301.916 244.512 301.316 242.856 301.172 240.648H327.884C327.952 240.131 328.004 239.614 328.039 239.097C328.08 238.51 328.1 237.923 328.1 237.336C328.1 233.208 327.236 229.632 325.508 226.608C323.78 223.536 321.38 221.184 318.308 219.552C315.236 217.92 311.708 217.104 307.724 217.104C303.692 217.104 300.116 217.944 296.996 219.624C293.924 221.304 291.524 223.704 289.796 226.824ZM301.244 233.808C301.58 231.984 302.3 230.616 303.404 229.704C303.83 229.334 304.302 229.035 304.82 228.808C305.646 228.445 306.59 228.264 307.652 228.264C308.689 228.264 309.622 228.445 310.451 228.808C311.004 229.05 311.511 229.373 311.972 229.776C313.124 230.736 313.7 232.08 313.7 233.808H301.244ZM353.408 237.941C353.408 237.942 353.405 237.946 353.397 237.953C353.404 237.945 353.407 237.941 353.408 237.941ZM352.988 219.743C351.057 221.031 349.391 222.695 347.988 224.736V217.608H333.876V258H347.988V240.36C347.988 237.384 348.732 235.296 350.22 234.096C351.708 232.896 353.988 232.296 357.06 232.296H361.02V217.248C359.277 217.248 357.61 217.552 356.02 218.159C355.244 218.455 354.487 218.824 353.748 219.264C353.49 219.418 353.237 219.577 352.988 219.743Z" fill="white"/>
</g>
<path d="M290.694 154.631C290.694 154.631 221.491 138.9 194.473 138.9C172.874 138.9 97.4264 148.953 68.0265 152.986C64.8151 154.556 60.8765 155.355 56.1712 154.631C39.5111 152.071 43.6221 138.888 47.3018 127.871C51.7537 114.541 64.6362 69.0032 105.177 44.1895C113.314 38.2064 136.327 26.9567 161.533 21.3524C171.982 18.429 183.604 17.2322 196.501 18.2663C300.306 26.589 310.864 124.816 306.073 141.187C302.789 152.408 293.471 154.418 290.694 154.631Z" fill="#F6A049"/>
<path fill-rule="evenodd" clip-rule="evenodd" d="M160.803 18.4415C171.59 15.4336 183.542 14.2177 196.74 15.2759C249.762 19.527 279.2 46.8415 294.646 75.2764C302.338 89.435 306.546 103.835 308.53 115.752C309.523 121.712 309.963 127.082 309.998 131.523C310.031 135.902 309.672 139.568 308.952 142.029C305.166 154.966 294.301 157.363 290.924 157.623L290.472 157.657L290.029 157.557L290.694 154.631C290.029 157.557 290.03 157.557 290.029 157.557L290.027 157.556L289.834 157.512C289.704 157.483 289.509 157.439 289.254 157.382C288.743 157.267 287.989 157.099 287.02 156.885C285.081 156.456 282.28 155.843 278.833 155.107C271.938 153.636 262.466 151.674 252.155 149.713C231.421 145.77 207.649 141.9 194.473 141.9C183.892 141.9 159.832 144.385 134.531 147.41C109.58 150.393 83.6687 153.87 68.8932 155.896C65.2286 157.585 60.8239 158.382 55.7153 157.597C51.1745 156.899 47.6738 155.421 45.1955 153.115C42.6739 150.768 41.4933 147.827 41.13 144.777C40.7745 141.793 41.1901 138.651 41.867 135.675C42.5468 132.685 43.5398 129.664 44.4562 126.92C44.7058 126.173 44.9838 125.317 45.2937 124.363C50.4304 108.546 64.3352 65.7325 103.504 41.6962C112.118 35.4094 135.41 24.0999 160.803 18.4415ZM162.264 24.2633C173.654 21.7368 185.38 20.4123 196.265 21.257C247.046 25.3296 274.788 51.2891 289.374 78.1404C296.699 91.6252 300.72 105.372 302.612 116.737C303.557 122.417 303.966 127.472 303.998 131.569C304.03 135.728 303.671 138.713 303.194 140.344C300.567 149.319 293.492 151.267 290.879 151.597C290.788 151.577 290.684 151.554 290.567 151.527C290.051 151.412 289.291 151.242 288.316 151.026C286.364 150.595 283.548 149.979 280.085 149.239C273.16 147.761 263.643 145.79 253.276 143.819C232.653 139.896 208.314 135.9 194.473 135.9C183.455 135.9 158.992 138.442 133.819 141.452C113.656 143.863 92.875 146.595 77.8298 148.625C79.577 146.346 80.7596 144.038 81.4205 142.204C83.2825 137.036 85.1295 130.749 87.1418 123.899C87.6374 122.212 88.143 120.491 88.6614 118.744C91.3021 109.844 94.3071 100.149 98.0914 90.4402C105.678 70.9758 116.28 51.7729 132.965 39.003C141.466 32.4967 151.185 27.3743 162.264 24.2633ZM127.528 35.6487C118.091 39.7398 110.741 43.8219 106.954 46.6064L106.852 46.6818L106.743 46.7482C69.4661 69.5643 56.1409 110.449 50.9758 126.297C50.6725 127.228 50.3974 128.072 50.1472 128.821C49.2237 131.586 48.3229 134.344 47.7176 137.005C47.1094 139.679 46.8485 142.058 47.0879 144.067C47.3194 146.01 48.0048 147.533 49.283 148.723C50.5544 149.906 52.6692 150.998 56.2016 151.597L56.5687 151.546C57.1047 151.47 57.896 151.36 58.9178 151.217C60.8686 150.945 63.6599 150.558 67.1201 150.083C71.8791 147.582 74.7494 143.019 75.7758 140.17C77.5704 135.189 79.3503 129.132 81.3569 122.303C81.8589 120.594 82.3751 118.838 82.9092 117.037C85.5608 108.101 88.6228 98.2112 92.501 88.2612C99.9792 69.0753 110.602 49.3671 127.528 35.6487Z" fill="#C9723B"/>
<path d="M72.8793 84.3973C76.3267 81.6338 81.3616 82.1882 84.1251 85.6356L95.4613 99.7772C98.2248 103.225 97.6704 108.259 94.223 111.023L80.0814 122.359C76.634 125.123 71.5991 124.568 68.8356 121.121L57.4994 106.979C54.7359 103.532 55.2903 98.497 58.7377 95.7335L72.8793 84.3973Z" fill="#F6B03B"/>
<path fill-rule="evenodd" clip-rule="evenodd" d="M93.1206 101.654L81.7843 87.512C80.0571 85.3574 76.9103 85.0109 74.7557 86.738L60.6141 98.0743C58.4595 99.8015 58.113 102.948 59.8401 105.103L71.1764 119.245C72.9036 121.399 76.0504 121.746 78.205 120.018L92.3466 108.682C94.5012 106.955 94.8477 103.808 93.1206 101.654ZM84.1251 85.6356C81.3616 82.1882 76.3267 81.6338 72.8793 84.3973L58.7377 95.7335C55.2903 98.497 54.7359 103.532 57.4994 106.979L68.8356 121.121C71.5991 124.568 76.634 125.123 80.0814 122.359L94.223 111.023C97.6704 108.259 98.2248 103.225 95.4613 99.7772L84.1251 85.6356Z" fill="#813F3D"/>
<path d="M188.631 5.00372C192.078 2.24024 197.113 2.79464 199.876 6.24201L211.213 20.3837C213.976 23.831 213.422 28.8659 209.974 31.6294L195.833 42.9657C192.385 45.7291 187.35 45.1747 184.587 41.7274L173.251 27.5857C170.487 24.1383 171.042 19.1035 174.489 16.34L188.631 5.00372Z" fill="#F6B03B"/>
<path fill-rule="evenodd" clip-rule="evenodd" d="M208.872 22.2601L197.536 8.11841C195.808 5.9638 192.662 5.6173 190.507 7.34448L176.365 18.6807C174.211 20.4079 173.864 23.5547 175.591 25.7093L186.928 39.851C188.655 42.0056 191.802 42.3521 193.956 40.6249L208.098 29.2887C210.252 27.5615 210.599 24.4147 208.872 22.2601ZM199.876 6.24201C197.113 2.79464 192.078 2.24024 188.631 5.00372L174.489 16.34C171.042 19.1035 170.487 24.1383 173.251 27.5857L184.587 41.7274C187.35 45.1747 192.385 45.7291 195.833 42.9657L209.974 31.6294C213.422 28.8659 213.976 23.831 211.213 20.3837L199.876 6.24201Z" fill="#813F3D"/>
<path d="M233.15 16.1336C236.598 13.3701 241.633 13.9245 244.396 17.3719L255.732 31.5136C258.496 34.9609 257.941 39.9958 254.494 42.7593L240.352 54.0955C236.905 56.859 231.87 56.3046 229.107 52.8573L217.77 38.7156C215.007 35.2682 215.561 30.2333 219.009 27.4699L233.15 16.1336Z" fill="#F6B03B"/>
<path fill-rule="evenodd" clip-rule="evenodd" d="M253.392 33.39L242.055 19.2483C240.328 17.0937 237.181 16.7472 235.027 18.4744L220.885 29.8106C218.73 31.5378 218.384 34.6846 220.111 36.8392L231.447 50.9809C233.175 53.1355 236.321 53.482 238.476 51.7548L252.618 40.4185C254.772 38.6914 255.119 35.5446 253.392 33.39ZM244.396 17.3719C241.633 13.9245 236.598 13.3701 233.15 16.1336L219.009 27.4699C215.561 30.2333 215.007 35.2682 217.77 38.7156L229.107 52.8573C231.87 56.3046 236.905 56.859 240.352 54.0955L254.494 42.7593C257.941 39.9958 258.496 34.9609 255.732 31.5136L244.396 17.3719Z" fill="#813F3D"/>
<path d="M280.892 47.2446C285.286 47.7055 288.475 51.6413 288.014 56.0355L286.123 74.0611C285.662 78.4553 281.726 81.6438 277.332 81.183L259.307 79.2924C254.913 78.8316 251.724 74.8958 252.185 70.5016L254.075 52.476C254.536 48.0818 258.472 44.8932 262.866 45.3541L280.892 47.2446Z" fill="#F6B03B"/>
<path fill-rule="evenodd" clip-rule="evenodd" d="M283.139 73.7482L285.03 55.7225C285.318 52.9762 283.325 50.5163 280.579 50.2283L262.553 48.3377C259.807 48.0497 257.347 50.0425 257.059 52.7889L255.168 70.8145C254.88 73.5609 256.873 76.0208 259.62 76.3088L277.645 78.1993C280.392 78.4874 282.851 76.4945 283.139 73.7482ZM288.014 56.0355C288.475 51.6413 285.286 47.7055 280.892 47.2446L262.866 45.3541C258.472 44.8932 254.536 48.0818 254.075 52.476L252.185 70.5016C251.724 74.8958 254.913 78.8316 259.307 79.2924L277.332 81.183C281.726 81.6438 285.662 78.4553 286.123 74.0611L288.014 56.0355Z" fill="#813F3D"/>
<path d="M96.6232 50.2654C100.071 47.502 105.105 48.0564 107.869 51.5037L119.205 65.6454C121.969 69.0928 121.414 74.1277 117.967 76.8911L103.825 88.2274C100.378 90.9909 95.343 90.4365 92.5795 86.9891L81.2433 72.8474C78.4798 69.4001 79.0342 64.3652 82.4816 61.6017L96.6232 50.2654Z" fill="#F6B03B"/>
<path fill-rule="evenodd" clip-rule="evenodd" d="M116.864 67.5218L105.528 53.3801C103.801 51.2255 100.654 50.879 98.4996 52.6062L84.358 63.9424C82.2033 65.6696 81.8568 68.8164 83.584 70.971L94.9203 85.1127C96.6474 87.2673 99.7943 87.6138 101.949 85.8866L116.091 74.5504C118.245 72.8232 118.592 69.6764 116.864 67.5218ZM107.869 51.5037C105.105 48.0564 100.071 47.502 96.6232 50.2654L82.4816 61.6017C79.0342 64.3652 78.4798 69.4001 81.2433 72.8474L92.5795 86.9891C95.343 90.4365 100.378 90.9909 103.825 88.2274L117.967 76.8911C121.414 74.1277 121.969 69.0928 119.205 65.6454L107.869 51.5037Z" fill="#813F3D"/>
<path d="M139.871 19.0836C144.233 18.379 148.34 21.3438 149.045 25.7055L151.935 43.5981C152.64 47.9598 149.675 52.0668 145.313 52.7714L127.42 55.6616C123.059 56.3662 118.952 53.4014 118.247 49.0397L115.357 31.1471C114.652 26.7854 117.617 22.6783 121.979 21.9738L139.871 19.0836Z" fill="#BC252F"/>
<path fill-rule="evenodd" clip-rule="evenodd" d="M148.973 44.0765L146.083 26.1839C145.643 23.4578 143.076 21.6048 140.35 22.0452L122.457 24.9354C119.731 25.3757 117.878 27.9426 118.319 30.6687L121.209 48.5613C121.649 51.2874 124.216 53.1403 126.942 52.7L144.835 49.8098C147.561 49.3694 149.414 46.8025 148.973 44.0765ZM149.045 25.7055C148.34 21.3438 144.233 18.379 139.871 19.0836L121.979 21.9738C117.617 22.6783 114.652 26.7854 115.357 31.1471L118.247 49.0397C118.952 53.4014 123.059 56.3662 127.42 55.6616L145.313 52.7714C149.675 52.0668 152.64 47.9598 151.935 43.5981L149.045 25.7055Z" fill="#7C3D33"/>
<path d="M178.206 16.0699C182.061 18.2292 183.435 23.1046 181.276 26.9592L170 47.088C167.841 50.9427 162.965 52.317 159.111 50.1576L143.298 41.2996C139.444 39.1403 138.069 34.265 140.229 30.4103L151.505 10.2815C153.664 6.42684 158.539 5.05252 162.394 7.21187L178.206 16.0699Z" fill="#BC252F"/>
<path fill-rule="evenodd" clip-rule="evenodd" d="M167.383 45.6218L178.659 25.493C180.008 23.0839 179.149 20.0368 176.74 18.6872L160.928 9.82918C158.519 8.47958 155.471 9.33853 154.122 11.7477L142.846 31.8765C141.496 34.2857 142.355 37.3327 144.764 38.6823L160.577 47.5403C162.986 48.8899 166.033 48.031 167.383 45.6218ZM181.276 26.9592C183.435 23.1046 182.061 18.2292 178.206 16.0699L162.394 7.21187C158.539 5.05252 153.664 6.42684 151.505 10.2815L140.229 30.4103C138.069 34.265 139.444 39.1403 143.298 41.2996L159.111 50.1576C162.965 52.317 167.841 50.9427 170 47.088L181.276 26.9592Z" fill="#7C3D33"/>
<path d="M230.168 20.1878C234.023 22.3472 235.397 27.2225 233.238 31.0771L221.962 51.2059C219.803 55.0606 214.927 56.4349 211.073 54.2756L195.26 45.4175C191.406 43.2582 190.031 38.3829 192.191 34.5282L203.467 14.3994C205.626 10.5448 210.501 9.17044 214.356 11.3298L230.168 20.1878Z" fill="#BC252F"/>
<path fill-rule="evenodd" clip-rule="evenodd" d="M219.345 49.7397L230.621 29.6109C231.97 27.2018 231.111 24.1547 228.702 22.8051L212.89 13.9471C210.481 12.5975 207.434 13.4564 206.084 15.8656L194.808 35.9944C193.458 38.4036 194.317 41.4507 196.727 42.8002L212.539 51.6583C214.948 53.0079 217.995 52.1489 219.345 49.7397ZM233.238 31.0771C235.397 27.2225 234.023 22.3472 230.168 20.1878L214.356 11.3298C210.501 9.17044 205.626 10.5448 203.467 14.3994L192.191 34.5282C190.031 38.3829 191.406 43.2582 195.26 45.4175L211.073 54.2756C214.927 56.4349 219.803 55.0606 221.962 51.2059L233.238 31.0771Z" fill="#7C3D33"/>
<path d="M270.236 34.2857C274.091 36.4451 275.465 41.3204 273.306 45.175L262.03 65.3038C259.87 69.1585 254.995 70.5328 251.14 68.3735L235.328 59.5154C231.473 57.3561 230.099 52.4808 232.258 48.6261L243.534 28.4973C245.694 24.6427 250.569 23.2683 254.424 25.4277L270.236 34.2857Z" fill="#BC252F"/>
<path fill-rule="evenodd" clip-rule="evenodd" d="M259.412 63.8376L270.688 43.7088C272.038 41.2997 271.179 38.2526 268.77 36.903L252.957 28.045C250.548 26.6954 247.501 27.5543 246.152 29.9635L234.876 50.0923C233.526 52.5015 234.385 55.5486 236.794 56.8981L252.607 65.7562C255.016 67.1058 258.063 66.2468 259.412 63.8376ZM273.306 45.175C275.465 41.3204 274.091 36.4451 270.236 34.2857L254.424 25.4277C250.569 23.2683 245.694 24.6427 243.534 28.4973L232.258 48.6261C230.099 52.4808 231.473 57.3561 235.328 59.5154L251.14 68.3735C254.995 70.5328 259.87 69.1585 262.03 65.3038L273.306 45.175Z" fill="#7C3D33"/>
<path d="M111.97 29.9709C116.005 28.1709 120.735 29.9828 122.535 34.0178L129.919 50.5701C131.719 54.6052 129.907 59.3353 125.872 61.1353L109.319 68.5189C105.284 70.3189 100.554 68.507 98.7542 64.472L91.3706 47.9197C89.5706 43.8847 91.3825 39.1545 95.4175 37.3546L111.97 29.9709Z" fill="#BC252F"/>
<path fill-rule="evenodd" clip-rule="evenodd" d="M127.179 51.7923L119.795 35.24C118.67 32.7181 115.714 31.5857 113.192 32.7106L96.6397 40.0943C94.1178 41.2193 92.9854 44.1756 94.1103 46.6975L101.494 63.2498C102.619 65.7717 105.575 66.9041 108.097 65.7792L124.65 58.3955C127.171 57.2705 128.304 54.3142 127.179 51.7923ZM122.535 34.0178C120.735 29.9828 116.005 28.1709 111.97 29.9709L95.4175 37.3546C91.3825 39.1545 89.5706 43.8847 91.3706 47.9197L98.7542 64.472C100.554 68.507 105.284 70.3189 109.319 68.5189L125.872 61.1353C129.907 59.3353 131.719 54.6052 129.919 50.5701L122.535 34.0178Z" fill="#7C3D33"/>
<path d="M76.5485 106.259C80.6164 104.535 85.3119 106.435 87.0362 110.503L94.1097 127.19C95.834 131.258 93.9342 135.954 89.8663 137.678L73.179 144.751C69.1111 146.476 64.4156 144.576 62.6913 140.508L55.6178 123.821C53.8935 119.753 55.7933 115.057 59.8612 113.333L76.5485 106.259Z" fill="#BC252F"/>
<path fill-rule="evenodd" clip-rule="evenodd" d="M91.3476 128.361L84.2741 111.674C83.1964 109.131 80.2617 107.944 77.7193 109.022L61.0321 116.095C58.4896 117.173 57.3022 120.107 58.3799 122.65L65.4534 139.337C66.5311 141.88 69.4658 143.067 72.0082 141.989L88.6954 134.916C91.2379 133.838 92.4253 130.903 91.3476 128.361ZM87.0362 110.503C85.3119 106.435 80.6164 104.535 76.5485 106.259L59.8612 113.333C55.7933 115.057 53.8935 119.753 55.6178 123.821L62.6913 140.508C64.4156 144.576 69.1111 146.476 73.179 144.751L89.8663 137.678C93.9342 135.954 95.834 131.258 94.1097 127.19L87.0362 110.503Z" fill="#7C3D33"/>
<path d="M96.2151 75.2533C100.552 74.4095 104.752 77.2413 105.596 81.5782L109.057 99.3691C109.901 103.706 107.069 107.906 102.732 108.75L84.9414 112.211C80.6044 113.055 76.4046 110.223 75.5608 105.886L72.0993 88.0954C71.2555 83.7584 74.0873 79.5586 78.4242 78.7148L96.2151 75.2533Z" fill="#BC252F"/>
<path fill-rule="evenodd" clip-rule="evenodd" d="M106.112 99.942L102.651 82.1512C102.124 79.4406 99.4987 77.6707 96.7881 78.1981L78.9972 81.6596C76.2866 82.1869 74.5167 84.8118 75.0441 87.5224L78.5056 105.313C79.033 108.024 81.6579 109.794 84.3685 109.266L102.159 105.805C104.87 105.278 106.64 102.653 106.112 99.942ZM105.596 81.5782C104.752 77.2413 100.552 74.4095 96.2151 75.2533L78.4242 78.7148C74.0873 79.5586 71.2555 83.7584 72.0993 88.0954L75.5608 105.886C76.4046 110.223 80.6044 113.055 84.9414 112.211L102.732 108.75C107.069 107.906 109.901 103.706 109.057 99.3691L105.596 81.5782Z" fill="#7C3D33"/>
<path d="M289.748 154.631C289.748 154.631 220.773 138.9 193.845 138.9C172.317 138.9 97.1189 148.953 67.8161 152.986C64.6153 154.556 60.6897 155.355 56 154.631C56 154.631 60.4631 153.998 67.8161 152.986C73.6818 150.109 77.1134 144.639 78.353 141.187C87.4512 115.853 96.1792 63.1468 130.723 36.6207C147.457 23.7706 168.855 16.0934 195.866 18.2663C299.328 26.589 309.851 124.816 305.076 141.187C301.803 152.408 292.516 154.418 289.748 154.631Z" fill="#F6A049"/>
<path fill-rule="evenodd" clip-rule="evenodd" d="M128.896 34.2413C146.203 20.9512 168.333 13.0418 196.106 15.276C248.961 19.5277 278.304 46.8466 293.698 75.28C301.364 89.4382 305.558 103.837 307.535 115.753C308.524 121.714 308.964 127.083 308.998 131.523C309.031 135.902 308.673 139.567 307.956 142.027C304.183 154.961 293.353 157.362 289.979 157.622L289.525 157.657L289.081 157.556L289.748 154.631C289.081 157.556 289.082 157.556 289.081 157.556L289.079 157.556L288.886 157.512C288.756 157.483 288.563 157.439 288.308 157.381C287.799 157.267 287.048 157.099 286.082 156.884C284.15 156.455 281.357 155.843 277.922 155.107C271.05 153.635 261.609 151.674 251.332 149.713C230.667 145.769 206.975 141.9 193.845 141.9C183.3 141.9 159.321 144.384 134.104 147.409C109.237 150.392 83.4125 153.87 68.6854 155.895C65.0307 157.585 60.6374 158.382 55.5427 157.596L55.5787 151.661L55.5821 151.661L56.3936 151.546C56.9278 151.471 57.7164 151.36 58.7349 151.217C60.6787 150.945 63.4597 150.558 66.9071 150.083C71.6457 147.584 74.506 143.023 75.5295 140.173C77.3183 135.192 79.0924 129.134 81.0924 122.305C81.5927 120.597 82.1071 118.84 82.6395 117.04C85.2823 108.104 88.3341 98.2141 92.1994 88.2644C99.9118 68.4118 110.98 47.9985 128.896 34.2413ZM77.596 148.623C92.5907 146.593 113.297 143.862 133.389 141.452C158.478 138.443 182.862 135.9 193.845 135.9C207.643 135.9 231.903 139.897 252.457 143.819C262.79 145.791 272.276 147.762 279.178 149.24C282.63 149.979 285.437 150.595 287.382 151.027C288.354 151.242 289.111 151.412 289.626 151.528C289.74 151.554 289.843 151.577 289.933 151.597C292.534 151.267 299.579 149.319 302.196 140.347C302.672 138.714 303.03 135.728 302.998 131.569C302.966 127.471 302.559 122.416 301.616 116.735C299.73 105.369 295.723 91.622 288.422 78.1367C273.883 51.2834 246.233 25.3277 195.625 21.2566C169.376 19.1451 148.711 26.59 132.55 39.0001C115.922 51.769 105.354 70.9716 97.7922 90.4371C94.0203 100.146 91.0253 109.841 88.3932 118.742C87.8765 120.489 87.3725 122.21 86.8785 123.897C84.873 130.747 83.0321 137.033 81.1764 142.201C80.5178 144.035 79.3387 146.344 77.596 148.623Z" fill="#C9723B"/>
<path d="M159 82.9003C159 84.5571 157.657 85.9003 156 85.9003C154.343 85.9003 153 84.5571 153 82.9003C153 81.2434 154.343 79.9003 156 79.9003C157.657 79.9003 159 81.2434 159 82.9003Z" fill="#81403D"/>
<path d="M159 40.4003C159 41.781 157.657 42.9003 156 42.9003C154.343 42.9003 153 41.781 153 40.4003C153 39.0196 154.343 37.9003 156 37.9003C157.657 37.9003 159 39.0196 159 40.4003Z" fill="#81403D"/>
<path d="M216 28.9003C216 30.5571 214.881 31.9003 213.5 31.9003C212.119 31.9003 211 30.5571 211 28.9003C211 27.2434 212.119 25.9003 213.5 25.9003C214.881 25.9003 216 27.2434 216 28.9003Z" fill="#81403D"/>
<path d="M130 112.4C130 114.333 128.657 115.9 127 115.9C125.343 115.9 124 114.333 124 112.4C124 110.467 125.343 108.9 127 108.9C128.657 108.9 130 110.467 130 112.4Z" fill="#81403D"/>
<path d="M220 82.9003C220 84.5571 218.433 85.9003 216.5 85.9003C214.567 85.9003 213 84.5571 213 82.9003C213 81.2434 214.567 79.9003 216.5 79.9003C218.433 79.9003 220 81.2434 220 82.9003Z" fill="#81403D"/>
<path d="M195 100.4C195 101.781 193.657 102.9 192 102.9C190.343 102.9 189 101.781 189 100.4C189 99.0196 190.343 97.9003 192 97.9003C193.657 97.9003 195 99.0196 195 100.4Z" fill="#81403D"/>
<path d="M273 79.9003C273 81.5571 271.657 82.9003 270 82.9003C268.343 82.9003 267 81.5571 267 79.9003C267 78.2434 268.343 76.9003 270 76.9003C271.657 76.9003 273 78.2434 273 79.9003Z" fill="#81403D"/>
<path d="M288 112.4C288 114.333 286.657 115.9 285 115.9C283.343 115.9 282 114.333 282 112.4C282 110.467 283.343 108.9 285 108.9C286.657 108.9 288 110.467 288 112.4Z" fill="#81403D"/>
<path d="M239 59.9003C239 61.5571 237.657 62.9003 236 62.9003C234.343 62.9003 233 61.5571 233 59.9003C233 58.2434 234.343 56.9003 236 56.9003C237.657 56.9003 239 58.2434 239 59.9003Z" fill="#81403D"/>
<path d="M242 94.4003C242 96.3333 240.881 97.9003 239.5 97.9003C238.119 97.9003 237 96.3333 237 94.4003C237 92.4673 238.119 90.9003 239.5 90.9003C240.881 90.9003 242 92.4673 242 94.4003Z" fill="#81403D"/>
<path d="M166 114.9C166 116.557 164.881 117.9 163.5 117.9C162.119 117.9 161 116.557 161 114.9C161 113.243 162.119 111.9 163.5 111.9C164.881 111.9 166 113.243 166 114.9Z" fill="#81403D"/>
<path d="M248 118.4C248 119.781 246.657 120.9 245 120.9C243.343 120.9 242 119.781 242 118.4C242 117.02 243.343 115.9 245 115.9C246.657 115.9 248 117.02 248 118.4Z" fill="#81403D"/>
<path d="M192 57.9003C192 59.5571 190.657 60.9003 189 60.9003C187.343 60.9003 186 59.5571 186 57.9003C186 56.2434 187.343 54.9003 189 54.9003C190.657 54.9003 192 56.2434 192 57.9003Z" fill="#81403D"/>
<path d="M107 128.4C107 130.333 105.657 131.9 104 131.9C102.343 131.9 101 130.333 101 128.4C101 126.467 102.343 124.9 104 124.9C105.657 124.9 107 126.467 107 128.4Z" fill="#81403D"/>
<path d="M128 65.9003C128 67.5571 126.433 68.9003 124.5 68.9003C122.567 68.9003 121 67.5571 121 65.9003C121 64.2434 122.567 62.9003 124.5 62.9003C126.433 62.9003 128 64.2434 128 65.9003Z" fill="#81403D"/>
<g filter="url(#filter2_d)">
<path d="M78.304 151.024C78.304 145.456 79.296 140.592 81.28 136.432C83.328 132.272 86.08 129.072 89.536 126.832C93.056 124.592 96.96 123.472 101.248 123.472C104.96 123.472 108.16 124.208 110.848 125.68C113.536 127.152 115.616 129.136 117.088 131.632V124.144H135.904V178H117.088V170.512C115.616 173.008 113.504 174.992 110.752 176.464C108.064 177.936 104.896 178.672 101.248 178.672C96.96 178.672 93.056 177.552 89.536 175.312C86.08 173.072 83.328 169.872 81.28 165.712C79.296 161.488 78.304 156.592 78.304 151.024ZM117.088 151.024C117.088 147.568 116.128 144.848 114.208 142.864C112.352 140.88 110.048 139.888 107.296 139.888C104.48 139.888 102.144 140.88 100.288 142.864C98.432 144.784 97.504 147.504 97.504 151.024C97.504 154.48 98.432 157.232 100.288 159.28C102.144 161.264 104.48 162.256 107.296 162.256C110.048 162.256 112.352 161.264 114.208 159.28C116.128 157.296 117.088 154.544 117.088 151.024Z" fill="#E31A21"/>
<path d="M143.554 151.312C143.554 146 144.642 141.264 146.818 137.104C149.058 132.88 152.002 129.584 155.65 127.216C159.362 124.848 163.394 123.664 167.746 123.664C174.018 123.664 178.882 125.648 182.338 129.616V124.144H201.154V203.728H182.338V171.664C178.37 176.336 173.474 178.672 167.65 178.672C163.298 178.672 159.266 177.52 155.554 175.216C151.906 172.912 148.994 169.68 146.818 165.52C144.642 161.36 143.554 156.624 143.554 151.312ZM182.338 151.024C182.338 147.44 181.314 144.72 179.266 142.864C177.282 140.944 175.042 139.984 172.546 139.984C170.05 139.984 167.778 140.976 165.73 142.96C163.746 144.88 162.754 147.664 162.754 151.312C162.754 154.96 163.746 157.712 165.73 159.568C167.714 161.36 169.986 162.256 172.546 162.256C175.042 162.256 177.282 161.296 179.266 159.376C181.314 157.456 182.338 154.672 182.338 151.024Z" fill="#E31A21"/>
<path d="M266.98 124.144V178H248.068V170.32C246.468 172.752 244.26 174.736 241.444 176.272C238.628 177.744 235.396 178.48 231.748 178.48C225.476 178.48 220.516 176.432 216.868 172.336C213.284 168.176 211.492 162.544 211.492 155.44V124.144H230.212V153.04C230.212 156.112 231.012 158.544 232.612 160.336C234.276 162.064 236.452 162.928 239.14 162.928C241.892 162.928 244.068 162.064 245.668 160.336C247.268 158.544 248.068 156.112 248.068 153.04V124.144H266.98Z" fill="#E31A21"/>
<path d="M329.144 150.448C329.144 151.92 329.048 153.392 328.856 154.864H293.24C293.432 157.808 294.232 160.016 295.64 161.488C297.112 162.896 298.968 163.6 301.208 163.6C304.344 163.6 306.584 162.192 307.928 159.376H327.992C327.16 163.088 325.528 166.416 323.096 169.36C320.728 172.24 317.72 174.512 314.072 176.176C310.424 177.84 306.392 178.672 301.976 178.672C296.664 178.672 291.928 177.552 287.768 175.312C283.672 173.072 280.44 169.872 278.072 165.712C275.768 161.552 274.616 156.656 274.616 151.024C274.616 145.392 275.768 140.528 278.072 136.432C280.376 132.272 283.576 129.072 287.672 126.832C291.832 124.592 296.6 123.472 301.976 123.472C307.288 123.472 311.992 124.56 316.088 126.736C320.184 128.912 323.384 132.048 325.688 136.144C327.992 140.176 329.144 144.944 329.144 150.448ZM309.944 145.744C309.944 143.44 309.176 141.648 307.64 140.368C306.104 139.024 304.184 138.352 301.88 138.352C299.576 138.352 297.688 138.992 296.216 140.272C294.744 141.488 293.784 143.312 293.336 145.744H309.944Z" fill="#E31A21"/>
</g>
<g filter="url(#filter3_d)">
<path fill-rule="evenodd" clip-rule="evenodd" d="M76.7669 134.28C76.7759 134.261 76.7849 134.242 76.7941 134.224C79.1894 129.358 82.5112 125.427 86.8165 122.636L86.8516 122.614C91.197 119.848 96.0369 118.472 101.248 118.472C105.543 118.472 109.537 119.311 113.054 121.189C113.964 119.949 115.432 119.144 117.088 119.144H135.904C138.665 119.144 140.904 121.383 140.904 124.144V138.058C141.337 136.941 141.831 135.851 142.387 134.787L142.401 134.761C144.998 129.863 148.497 125.898 152.928 123.022L152.961 123.001C157.466 120.127 162.429 118.664 167.746 118.664C171.71 118.664 175.374 119.35 178.626 120.794C179.541 119.781 180.865 119.144 182.338 119.144H201.154C203.915 119.144 206.154 121.383 206.154 124.144V203.728C206.154 206.489 203.915 208.728 201.154 208.728H182.338C179.577 208.728 177.338 206.489 177.338 203.728V181.666C174.378 182.99 171.139 183.672 167.65 183.672C162.362 183.672 157.418 182.258 152.917 179.464L152.884 179.443C148.426 176.628 144.935 172.707 142.387 167.837C141.831 166.773 141.337 165.683 140.904 164.566V178C140.904 180.761 138.665 183 135.904 183H117.088C115.416 183 113.935 182.179 113.027 180.918C109.506 182.816 105.525 183.672 101.248 183.672C96.0369 183.672 91.197 182.296 86.8516 179.53L86.8165 179.508C82.5112 176.717 79.1894 172.786 76.7941 167.92C76.7806 167.893 76.7673 167.865 76.7543 167.838C74.4034 162.832 73.304 157.187 73.304 151.024C73.304 144.864 74.4026 139.237 76.7669 134.28ZM135.904 178V124.144H117.088V131.632C115.851 129.534 114.184 127.798 112.088 126.424C111.69 126.163 111.277 125.915 110.848 125.68C108.16 124.208 104.96 123.472 101.248 123.472C96.96 123.472 93.056 124.592 89.536 126.832C86.08 129.072 83.328 132.272 81.28 136.432C79.296 140.592 78.304 145.456 78.304 151.024C78.304 156.592 79.296 161.488 81.28 165.712C83.328 169.872 86.08 173.072 89.536 175.312C93.056 177.552 96.96 178.672 101.248 178.672C104.896 178.672 108.064 177.936 110.752 176.464C111.215 176.216 111.661 175.954 112.088 175.677C114.197 174.309 115.864 172.588 117.088 170.512V178H135.904ZM177.338 176.024C179.142 174.917 180.809 173.464 182.338 171.664V203.728H201.154V124.144H182.338V129.616C180.911 127.978 179.245 126.678 177.338 125.716C174.626 124.348 171.429 123.664 167.746 123.664C163.394 123.664 159.362 124.848 155.65 127.216C152.002 129.584 149.058 132.88 146.818 137.104C144.642 141.264 143.554 146 143.554 151.312C143.554 156.624 144.642 161.36 146.818 165.52C148.994 169.68 151.906 172.912 155.554 175.216C159.266 177.52 163.298 178.672 167.65 178.672C171.23 178.672 174.459 177.789 177.338 176.024ZM110.615 146.341C110.595 146.321 110.576 146.3 110.557 146.28C109.66 145.321 108.684 144.888 107.296 144.888C105.807 144.888 104.812 145.347 103.939 146.28C103.921 146.3 103.902 146.319 103.883 146.339C103.186 147.06 102.504 148.375 102.504 151.024C102.504 153.536 103.151 154.978 103.967 155.894C104.833 156.806 105.823 157.256 107.296 157.256C108.684 157.256 109.66 156.823 110.557 155.864C110.576 155.844 110.595 155.823 110.615 155.803C111.403 154.989 112.088 153.619 112.088 151.024C112.088 148.523 111.419 147.172 110.615 146.341ZM100.288 159.28C98.432 157.232 97.504 154.48 97.504 151.024C97.504 147.504 98.432 144.784 100.288 142.864C102.144 140.88 104.48 139.888 107.296 139.888C110.048 139.888 112.352 140.88 114.208 142.864C116.128 144.848 117.088 147.568 117.088 151.024C117.088 154.544 116.128 157.296 114.208 159.28C112.352 161.264 110.048 162.256 107.296 162.256C104.48 162.256 102.144 161.264 100.288 159.28ZM175.908 146.569C175.868 146.532 175.828 146.495 175.789 146.457C174.629 145.335 173.601 144.984 172.546 144.984C171.536 144.984 170.468 145.332 169.209 146.551L169.207 146.553C168.48 147.257 167.754 148.565 167.754 151.312C167.754 154.031 168.464 155.263 169.118 155.89C170.215 156.868 171.297 157.256 172.546 157.256C173.601 157.256 174.629 156.905 175.789 155.783C175.808 155.765 175.827 155.746 175.846 155.728C176.607 155.015 177.338 153.726 177.338 151.024C177.338 148.408 176.621 147.215 175.908 146.569ZM165.73 159.568C163.746 157.712 162.754 154.96 162.754 151.312C162.754 147.664 163.746 144.88 165.73 142.96C167.778 140.976 170.05 139.984 172.546 139.984C175.042 139.984 177.282 140.944 179.266 142.864C181.314 144.72 182.338 147.44 182.338 151.024C182.338 154.672 181.314 157.456 179.266 159.376C177.282 161.296 175.042 162.256 172.546 162.256C169.986 162.256 167.714 161.36 165.73 159.568ZM266.98 119.144C269.741 119.144 271.98 121.383 271.98 124.144V137.631C272.474 136.378 273.049 135.165 273.707 133.993C276.461 129.029 280.335 125.146 285.273 122.445L285.302 122.43C290.286 119.746 295.888 118.472 301.976 118.472C307.987 118.472 313.517 119.708 318.434 122.32C323.382 124.949 327.272 128.767 330.038 133.678C332.842 138.591 334.144 144.242 334.144 150.448C334.144 152.138 334.034 153.826 333.814 155.511C333.694 156.433 333.328 157.268 332.786 157.956C333.026 158.763 333.06 159.628 332.871 160.47C331.867 164.949 329.885 168.99 326.958 172.536C324.071 176.047 320.434 178.77 316.147 180.725C311.785 182.715 307.035 183.672 301.976 183.672C295.941 183.672 290.373 182.393 285.398 179.714L285.369 179.699C280.438 177.002 276.542 173.13 273.727 168.185C273.717 168.169 273.708 168.152 273.698 168.134C273.044 166.954 272.472 165.732 271.98 164.473V178C271.98 180.761 269.741 183 266.98 183H248.068C246.285 183 244.721 182.067 243.835 180.663C243.81 180.677 243.785 180.69 243.76 180.703C240.13 182.601 236.082 183.48 231.748 183.48C224.276 183.48 217.872 180.981 213.134 175.661C213.116 175.641 213.098 175.62 213.08 175.6C208.508 170.292 206.492 163.382 206.492 155.44V124.144C206.492 121.383 208.731 119.144 211.492 119.144H230.212C232.973 119.144 235.212 121.383 235.212 124.144V153.04C235.212 155.159 235.729 156.283 236.281 156.936C236.878 157.526 237.686 157.928 239.14 157.928C240.722 157.928 241.475 157.489 241.968 156.972C242.531 156.323 243.068 155.198 243.068 153.04V124.144C243.068 121.383 245.307 119.144 248.068 119.144H266.98ZM245.668 160.336C244.068 162.064 241.892 162.928 239.14 162.928C236.452 162.928 234.276 162.064 232.612 160.336C231.012 158.544 230.212 156.112 230.212 153.04V124.144H211.492V155.44C211.492 162.544 213.284 168.176 216.868 172.336C220.516 176.432 225.476 178.48 231.748 178.48C235.396 178.48 238.628 177.744 241.444 176.272C242.01 175.963 242.551 175.637 243.068 175.292C245.123 173.921 246.789 172.263 248.068 170.32V178H266.98V124.144H248.068V153.04C248.068 156.112 247.268 158.544 245.668 160.336ZM327.992 159.376C327.956 159.539 327.918 159.702 327.878 159.864C327.492 161.438 326.959 162.942 326.279 164.376C325.441 166.144 324.38 167.806 323.096 169.36C320.728 172.24 317.72 174.512 314.072 176.176C310.424 177.84 306.392 178.672 301.976 178.672C296.664 178.672 291.928 177.552 287.768 175.312C283.672 173.072 280.44 169.872 278.072 165.712C275.768 161.552 274.616 156.656 274.616 151.024C274.616 145.392 275.768 140.528 278.072 136.432C280.376 132.272 283.576 129.072 287.672 126.832C291.832 124.592 296.6 123.472 301.976 123.472C307.288 123.472 311.992 124.56 316.088 126.736C320.184 128.912 323.384 132.048 325.688 136.144C327.992 140.176 329.144 144.944 329.144 150.448C329.144 151.785 329.065 153.123 328.907 154.46C328.891 154.595 328.874 154.729 328.856 154.864H293.24C293.371 156.874 293.786 158.54 294.484 159.864C294.808 160.479 295.194 161.021 295.64 161.488C297.112 162.896 298.968 163.6 301.208 163.6C304.158 163.6 306.315 162.355 307.679 159.864C307.765 159.706 307.848 159.544 307.928 159.376H327.992ZM307.64 140.368C307.785 140.489 307.923 140.614 308.055 140.744C309.315 141.991 309.944 143.657 309.944 145.744H293.336C293.73 143.609 294.518 141.942 295.701 140.744C295.865 140.578 296.037 140.42 296.216 140.272C297.688 138.992 299.576 138.352 301.88 138.352C304.184 138.352 306.104 139.024 307.64 140.368Z" fill="white"/>
</g>
<g filter="url(#filter4_d)">
<path d="M95.2639 88.048V113.392H68.1919V190H36.2239V113.392H9.43994V88.048H95.2639Z" fill="#E31A21"/>
</g>
<g filter="url(#filter5_d)">
<path fill-rule="evenodd" clip-rule="evenodd" d="M95.2639 83.048C98.0254 83.048 100.264 85.2866 100.264 88.048V113.392C100.264 116.153 98.0254 118.392 95.2639 118.392H73.1919V190C73.1919 192.761 70.9534 195 68.1919 195H36.2239C33.4625 195 31.2239 192.761 31.2239 190V118.392H9.43994C6.67852 118.392 4.43994 116.153 4.43994 113.392V88.048C4.43994 85.2866 6.67852 83.048 9.43994 83.048H95.2639ZM36.2239 113.392V190H68.1919V113.392H95.2639V88.048H9.43994V113.392H36.2239Z" fill="white"/>
</g>
<defs>
<filter id="filter0_d" x="74.7999" y="190.032" width="290.22" height="76.472" filterUnits="userSpaceOnUse" color-interpolation-filters="sRGB">
<feFlood flood-opacity="0" result="BackgroundImageFix"/>
<feColorMatrix in="SourceAlpha" type="matrix" values="0 0 0 0 0 0 0 0 0 0 0 0 0 0 0 0 0 0 127 0"/>
<feOffset dy="4"/>
<feGaussianBlur stdDeviation="2"/>
<feColorMatrix type="matrix" values="0 0 0 0 0 0 0 0 0 0 0 0 0 0 0 0 0 0 0.25 0"/>
<feBlend mode="normal" in2="BackgroundImageFix" result="effect1_dropShadow"/>
<feBlend mode="normal" in="SourceGraphic" in2="effect1_dropShadow" result="shape"/>
</filter>
<filter id="filter1_d" x="69.7999" y="185.032" width="300.22" height="86.472" filterUnits="userSpaceOnUse" color-interpolation-filters="sRGB">
<feFlood flood-opacity="0" result="BackgroundImageFix"/>
<feColorMatrix in="SourceAlpha" type="matrix" values="0 0 0 0 0 0 0 0 0 0 0 0 0 0 0 0 0 0 127 0"/>
<feOffset dy="4"/>
<feGaussianBlur stdDeviation="2"/>
<feColorMatrix type="matrix" values="0 0 0 0 0 0 0 0 0 0 0 0 0 0 0 0 0 0 0.25 0"/>
<feBlend mode="normal" in2="BackgroundImageFix" result="effect1_dropShadow"/>
<feBlend mode="normal" in="SourceGraphic" in2="effect1_dropShadow" result="shape"/>
</filter>
<filter id="filter2_d" x="74.304" y="123.472" width="258.84" height="88.256" filterUnits="userSpaceOnUse" color-interpolation-filters="sRGB">
<feFlood flood-opacity="0" result="BackgroundImageFix"/>
<feColorMatrix in="SourceAlpha" type="matrix" values="0 0 0 0 0 0 0 0 0 0 0 0 0 0 0 0 0 0 127 0"/>
<feOffset dy="4"/>
<feGaussianBlur stdDeviation="2"/>
<feColorMatrix type="matrix" values="0 0 0 0 0 0 0 0 0 0 0 0 0 0 0 0 0 0 0.25 0"/>
<feBlend mode="normal" in2="BackgroundImageFix" result="effect1_dropShadow"/>
<feBlend mode="normal" in="SourceGraphic" in2="effect1_dropShadow" result="shape"/>
</filter>
<filter id="filter3_d" x="69.304" y="118.472" width="268.84" height="98.256" filterUnits="userSpaceOnUse" color-interpolation-filters="sRGB">
<feFlood flood-opacity="0" result="BackgroundImageFix"/>
<feColorMatrix in="SourceAlpha" type="matrix" values="0 0 0 0 0 0 0 0 0 0 0 0 0 0 0 0 0 0 127 0"/>
<feOffset dy="4"/>
<feGaussianBlur stdDeviation="2"/>
<feColorMatrix type="matrix" values="0 0 0 0 0 0 0 0 0 0 0 0 0 0 0 0 0 0 0.25 0"/>
<feBlend mode="normal" in2="BackgroundImageFix" result="effect1_dropShadow"/>
<feBlend mode="normal" in="SourceGraphic" in2="effect1_dropShadow" result="shape"/>
</filter>
<filter id="filter4_d" x="5.43994" y="88.048" width="93.824" height="109.952" filterUnits="userSpaceOnUse" color-interpolation-filters="sRGB">
<feFlood flood-opacity="0" result="BackgroundImageFix"/>
<feColorMatrix in="SourceAlpha" type="matrix" values="0 0 0 0 0 0 0 0 0 0 0 0 0 0 0 0 0 0 127 0"/>
<feOffset dy="4"/>
<feGaussianBlur stdDeviation="2"/>
<feColorMatrix type="matrix" values="0 0 0 0 0 0 0 0 0 0 0 0 0 0 0 0 0 0 0.25 0"/>
<feBlend mode="normal" in2="BackgroundImageFix" result="effect1_dropShadow"/>
<feBlend mode="normal" in="SourceGraphic" in2="effect1_dropShadow" result="shape"/>
</filter>
<filter id="filter5_d" x="0.439941" y="83.048" width="103.824" height="119.952" filterUnits="userSpaceOnUse" color-interpolation-filters="sRGB">
<feFlood flood-opacity="0" result="BackgroundImageFix"/>
<feColorMatrix in="SourceAlpha" type="matrix" values="0 0 0 0 0 0 0 0 0 0 0 0 0 0 0 0 0 0 127 0"/>
<feOffset dy="4"/>
<feGaussianBlur stdDeviation="2"/>
<feColorMatrix type="matrix" values="0 0 0 0 0 0 0 0 0 0 0 0 0 0 0 0 0 0 0.25 0"/>
<feBlend mode="normal" in2="BackgroundImageFix" result="effect1_dropShadow"/>
<feBlend mode="normal" in="SourceGraphic" in2="effect1_dropShadow" result="shape"/>
</filter>
</defs>
</svg>
